<svg xmlns="http://www.w3.org/2000/svg" viewBox="0 0 120 20" fill="white">
  <!-- PlayStation wordmark -->
  <path d="M0 0h4v7h4c3.2 0 5 1.8 5 4.5S11.2 16 8 16H0V0zm4 12.5h3.5c1.2 0 2-.7 2-2s-.8-2-2-2H4v4z"/>
  <path d="M16 11c0-3 2.2-5.2 5.5-5.2S27 8 27 11s-2.2 5.2-5.5 5.2S16 14 16 11zm7.5 0c0-1.5-.8-2.5-2-2.5s-2 1-2 2.5.8 2.5 2 2.5 2-1 2-2.5z"/>
  <path d="M30 6h3.5v1.5C34.3 6.6 35.3 6 36.8 6 39 6 40.5 7.5 40.5 10v6H37v-5.5c0-1.3-.7-2-1.8-2s-2 .8-2 2V16H30V6z"/>
  <path d="M44 13.5c.5.8 1.3 1.3 2.5 1.3 1 0 1.5-.4 1.5-1 0-.7-.5-1-2-1.3C43.5 12 42 11 42 9c0-1.8 1.5-3 3.8-3 1.8 0 3.2.8 4 2l-2 1.5c-.5-.7-1.2-1.1-2-1.1-.9 0-1.3.4-1.3.9 0 .6.5.9 2 1.2C48.8 11 50.3 12 50.3 14c0 2-1.5 3.2-4 3.2-2 0-3.5-.8-4.5-2.2l2.2-1.5z"/>
  <path d="M52 3c0-1.1.9-2 2-2s2 .9 2 2-.9 2-2 2-2-.9-2-2zm.5 3h3v10h-3V6z"/>
  <path d="M61.5 8.5H59V6h2.5V3.5l3-1V6h3v2.5h-3V12c0 1 .5 1.5 1.3 1.5.6 0 1.2-.2 1.7-.5l.8 2.3c-.8.5-1.8.8-3 .8-2.3 0-3.8-1.3-3.8-3.8V8.5z"/>
  <path d="M70 11c0-3.2 2.2-5.2 5.3-5.2 3 0 5 2 5 5.5H73c.2 1.3 1 2 2.3 2 1 0 1.8-.4 2.4-1.2l2 1.5c-1 1.3-2.5 2-4.5 2C72.2 16.3 70 14.2 70 11zm7-1c-.2-1.2-1-2-2-2s-1.8.8-2 2h4z"/>
  <path d="M84 6h3.5v2c.7-1.3 1.8-2.2 3.5-2.2v3.2c-2 0-3.5.8-3.5 3V16H84V6z"/>
  <path d="M94 13.5c.5.8 1.3 1.3 2.5 1.3 1 0 1.5-.4 1.5-1 0-.7-.5-1-2-1.3C93.5 12 92 11 92 9c0-1.8 1.5-3 3.8-3 1.8 0 3.2.8 4 2l-2 1.5c-.5-.7-1.2-1.1-2-1.1-.9 0-1.3.4-1.3.9 0 .6.5.9 2 1.2C98.8 11 100.3 12 100.3 14c0 2-1.5 3.2-4 3.2-2 0-3.5-.8-4.5-2.2l2.2-1.5z"/>
</svg>
